# Blender v2.79 (sub 0) OBJ File: '134133.blend'
# www.blender.org
mtllib lens55.mtl
o lens_left_Sphere
v 0.029573 0.028569 -0.039214
v 0.029573 0.027945 -0.039368
v 0.029127 0.027901 -0.039368
v 0.029005 0.028513 -0.039214
v 0.029573 0.029082 -0.039027
v 0.028905 0.029016 -0.039027
v 0.029573 0.029463 -0.038813
v 0.028831 0.029389 -0.038813
v 0.029573 0.029697 -0.038581
v 0.028785 0.029619 -0.038581
v 0.029573 0.029776 -0.038428
v 0.028769 0.029697 -0.038428
v 0.029573 0.026459 -0.039553
v 0.029573 0.025655 -0.039577
v 0.029417 0.026444 -0.039553
v 0.029573 0.027232 -0.039483
v 0.029266 0.027202 -0.039483
v 0.028970 0.027112 -0.039483
v 0.028697 0.027770 -0.039368
v 0.028458 0.028347 -0.039214
v 0.028262 0.028821 -0.039027
v 0.028116 0.029173 -0.038813
v 0.028027 0.029389 -0.038581
v 0.027996 0.029463 -0.038428
v 0.029266 0.026398 -0.039553
v 0.027458 0.028821 -0.038813
v 0.027328 0.029016 -0.038581
v 0.027284 0.029082 -0.038428
v 0.029127 0.026324 -0.039553
v 0.028697 0.026966 -0.039483
v 0.028301 0.027559 -0.039368
v 0.027954 0.028078 -0.039214
v 0.027670 0.028504 -0.039027
v 0.028458 0.026770 -0.039483
v 0.027954 0.027274 -0.039368
v 0.027513 0.027716 -0.039214
v 0.027150 0.028078 -0.039027
v 0.026881 0.028347 -0.038813
v 0.026715 0.028513 -0.038581
v 0.026659 0.028569 -0.038428
v 0.029005 0.026224 -0.039553
v 0.026408 0.027770 -0.038813
v 0.026213 0.027901 -0.038581
v 0.026147 0.027945 -0.038428
v 0.028905 0.026102 -0.039553
v 0.028262 0.026531 -0.039483
v 0.027670 0.026927 -0.039368
v 0.027150 0.027274 -0.039214
v 0.026724 0.027559 -0.039027
v 0.027458 0.026531 -0.039368
v 0.026881 0.026770 -0.039214
v 0.026408 0.026966 -0.039027
v 0.026056 0.027112 -0.038813
v 0.025839 0.027202 -0.038581
v 0.025766 0.027232 -0.038428
v 0.028831 0.025963 -0.039553
v 0.028116 0.026259 -0.039483
v 0.025609 0.026444 -0.038581
v 0.025531 0.026459 -0.038428
v 0.028785 0.025812 -0.039553
v 0.028027 0.025963 -0.039483
v 0.027328 0.026102 -0.039368
v 0.026715 0.026224 -0.039214
v 0.026213 0.026324 -0.039027
v 0.025839 0.026398 -0.038813
v 0.026659 0.025655 -0.039214
v 0.026147 0.025655 -0.039027
v 0.025766 0.025655 -0.038813
v 0.025531 0.025655 -0.038581
v 0.025452 0.025655 -0.038428
v 0.028769 0.025655 -0.039553
v 0.027996 0.025655 -0.039483
v 0.027284 0.025655 -0.039368
v 0.028785 0.025498 -0.039553
v 0.028027 0.025347 -0.039483
v 0.027328 0.025208 -0.039368
v 0.026715 0.025086 -0.039214
v 0.026213 0.024987 -0.039027
v 0.025839 0.024912 -0.038813
v 0.025609 0.024866 -0.038581
v 0.025531 0.024851 -0.038428
v 0.026881 0.024540 -0.039214
v 0.026408 0.024344 -0.039027
v 0.026056 0.024198 -0.038813
v 0.025839 0.024108 -0.038581
v 0.025766 0.024078 -0.038428
v 0.028831 0.025347 -0.039553
v 0.028116 0.025051 -0.039483
v 0.027458 0.024779 -0.039368
v 0.028905 0.025208 -0.039553
v 0.028262 0.024779 -0.039483
v 0.027670 0.024383 -0.039368
v 0.027150 0.024036 -0.039214
v 0.026724 0.023751 -0.039027
v 0.026408 0.023540 -0.038813
v 0.026213 0.023409 -0.038581
v 0.026147 0.023365 -0.038428
v 0.027150 0.023232 -0.039027
v 0.026881 0.022963 -0.038813
v 0.026715 0.022797 -0.038581
v 0.026659 0.022741 -0.038428
v 0.029005 0.025086 -0.039553
v 0.028458 0.024540 -0.039483
v 0.027954 0.024036 -0.039368
v 0.027513 0.023594 -0.039214
v 0.029127 0.024987 -0.039553
v 0.028697 0.024344 -0.039483
v 0.028301 0.023751 -0.039368
v 0.027954 0.023232 -0.039214
v 0.027670 0.022806 -0.039027
v 0.027458 0.022489 -0.038813
v 0.027328 0.022294 -0.038581
v 0.027284 0.022228 -0.038428
v 0.028262 0.022489 -0.039027
v 0.028116 0.022137 -0.038813
v 0.028027 0.021921 -0.038581
v 0.027996 0.021848 -0.038428
v 0.029266 0.024912 -0.039553
v 0.028970 0.024198 -0.039483
v 0.028697 0.023540 -0.039368
v 0.028458 0.022963 -0.039214
v 0.029266 0.024108 -0.039483
v 0.029127 0.023409 -0.039368
v 0.029005 0.022797 -0.039214
v 0.028905 0.022294 -0.039027
v 0.028831 0.021921 -0.038813
v 0.028785 0.021691 -0.038581
v 0.028769 0.021613 -0.038428
v 0.029417 0.024866 -0.039553
v 0.029573 0.021848 -0.038813
v 0.029573 0.021613 -0.038581
v 0.029573 0.021534 -0.038428
v 0.029573 0.024851 -0.039553
v 0.029573 0.024078 -0.039483
v 0.029573 0.023365 -0.039368
v 0.029573 0.022741 -0.039214
v 0.029573 0.022228 -0.039027
v 0.030020 0.023409 -0.039368
v 0.030142 0.022797 -0.039214
v 0.030242 0.022294 -0.039027
v 0.030316 0.021921 -0.038813
v 0.030362 0.021691 -0.038581
v 0.030377 0.021613 -0.038428
v 0.029730 0.024866 -0.039553
v 0.029881 0.024108 -0.039483
v 0.031120 0.021921 -0.038581
v 0.031151 0.021848 -0.038428
v 0.029881 0.024912 -0.039553
v 0.030177 0.024198 -0.039483
v 0.030450 0.023540 -0.039368
v 0.030689 0.022963 -0.039214
v 0.030885 0.022489 -0.039027
v 0.031030 0.022137 -0.038813
v 0.030845 0.023751 -0.039368
v 0.031192 0.023232 -0.039214
v 0.031477 0.022806 -0.039027
v 0.031689 0.022489 -0.038813
v 0.031819 0.022294 -0.038581
v 0.031863 0.022228 -0.038428
v 0.030020 0.024987 -0.039553
v 0.030450 0.024344 -0.039483
v 0.032432 0.022797 -0.038581
v 0.032488 0.022741 -0.038428
v 0.030142 0.025086 -0.039553
v 0.030689 0.024540 -0.039483
v 0.031192 0.024036 -0.039368
v 0.031634 0.023594 -0.039214
v 0.031996 0.023232 -0.039027
v 0.032266 0.022963 -0.038813
v 0.031996 0.024036 -0.039214
v 0.032423 0.023751 -0.039027
v 0.032739 0.023540 -0.038813
v 0.032934 0.023409 -0.038581
v 0.033000 0.023365 -0.038428
v 0.030242 0.025208 -0.039553
v 0.030885 0.024779 -0.039483
v 0.031477 0.024383 -0.039368
v 0.030316 0.025347 -0.039553
v 0.031030 0.025051 -0.039483
v 0.031689 0.024779 -0.039368
v 0.032266 0.024540 -0.039214
v 0.032739 0.024344 -0.039027
v 0.033091 0.024198 -0.038813
v 0.033308 0.024108 -0.038581
v 0.033381 0.024078 -0.038428
v 0.032432 0.025086 -0.039214
v 0.032934 0.024987 -0.039027
v 0.033308 0.024912 -0.038813
v 0.033538 0.024866 -0.038581
v 0.033615 0.024851 -0.038428
v 0.030362 0.025498 -0.039553
v 0.031120 0.025347 -0.039483
v 0.031819 0.025208 -0.039368
v 0.030377 0.025655 -0.039553
v 0.031151 0.025655 -0.039483
v 0.031863 0.025655 -0.039368
v 0.032488 0.025655 -0.039214
v 0.033000 0.025655 -0.039027
v 0.033381 0.025655 -0.038813
v 0.033615 0.025655 -0.038581
v 0.033695 0.025655 -0.038428
v 0.032934 0.026324 -0.039027
v 0.033308 0.026398 -0.038813
v 0.033538 0.026444 -0.038581
v 0.033615 0.026459 -0.038428
v 0.030362 0.025812 -0.039553
v 0.031120 0.025963 -0.039483
v 0.031819 0.026102 -0.039368
v 0.032432 0.026224 -0.039214
v 0.031030 0.026259 -0.039483
v 0.031689 0.026531 -0.039368
v 0.032266 0.026770 -0.039214
v 0.032739 0.026966 -0.039027
v 0.033091 0.027112 -0.038813
v 0.033308 0.027202 -0.038581
v 0.033381 0.027232 -0.038428
v 0.030316 0.025963 -0.039553
v 0.032739 0.027770 -0.038813
v 0.032934 0.027901 -0.038581
v 0.033000 0.027945 -0.038428
v 0.030242 0.026102 -0.039553
v 0.030885 0.026531 -0.039483
v 0.031477 0.026927 -0.039368
v 0.031996 0.027274 -0.039214
v 0.032423 0.027559 -0.039027
v 0.030689 0.026770 -0.039483
v 0.031192 0.027274 -0.039368
v 0.031634 0.027716 -0.039214
v 0.031996 0.028078 -0.039027
v 0.032266 0.028347 -0.038813
v 0.032432 0.028513 -0.038581
v 0.032488 0.028569 -0.038428
v 0.030142 0.026224 -0.039553
v 0.031689 0.028821 -0.038813
v 0.031819 0.029016 -0.038581
v 0.031863 0.029082 -0.038428
v 0.030020 0.026324 -0.039553
v 0.030450 0.026966 -0.039483
v 0.030845 0.027559 -0.039368
v 0.031192 0.028078 -0.039214
v 0.031477 0.028504 -0.039027
v 0.030450 0.027770 -0.039368
v 0.030689 0.028347 -0.039214
v 0.030885 0.028821 -0.039027
v 0.031030 0.029173 -0.038813
v 0.031120 0.029389 -0.038581
v 0.031151 0.029463 -0.038428
v 0.029881 0.026398 -0.039553
v 0.030177 0.027112 -0.039483
v 0.030362 0.029619 -0.038581
v 0.030377 0.029697 -0.038428
v 0.029730 0.026444 -0.039553
v 0.029881 0.027202 -0.039483
v 0.030020 0.027901 -0.039368
v 0.030142 0.028513 -0.039214
v 0.030242 0.029016 -0.039027
v 0.030316 0.029389 -0.038813
vn -0.0235 0.2390 -0.9707
vn -0.0338 0.3429 -0.9387
vn -0.0482 0.4889 -0.8710
vn -0.0691 0.7015 -0.7093
vn -0.0872 0.8854 -0.4567
vn 0.0001 0.0269 -0.9996
vn -0.0056 0.0200 -0.9998
vn -0.0051 0.0265 -0.9996
vn -0.0088 0.0902 -0.9959
vn -0.0156 0.1583 -0.9873
vn -0.0461 0.1521 -0.9873
vn -0.0697 0.2298 -0.9707
vn -0.1001 0.3300 -0.9387
vn -0.1426 0.4700 -0.8711
vn -0.2046 0.6745 -0.7093
vn -0.2583 0.8514 -0.4566
vn -0.0101 0.0249 -0.9996
vn -0.0264 0.0870 -0.9959
vn -0.3323 0.6217 -0.7092
vn -0.4194 0.7846 -0.4566
vn -0.0150 0.0223 -0.9996
vn -0.0427 0.0800 -0.9959
vn -0.0750 0.1403 -0.9873
vn -0.1132 0.2119 -0.9707
vn -0.1625 0.3041 -0.9387
vn -0.2318 0.4332 -0.8710
vn -0.1009 0.1230 -0.9873
vn -0.1526 0.1859 -0.9706
vn -0.2184 0.2663 -0.9388
vn -0.3118 0.3801 -0.8708
vn -0.4470 0.5450 -0.7093
vn -0.5644 0.6877 -0.4566
vn -0.0190 0.0232 -0.9996
vn -0.0578 0.0704 -0.9958
vn -0.5449 0.4471 -0.7094
vn -0.6877 0.5644 -0.4566
vn -0.0228 0.0187 -0.9996
vn -0.0219 0.0118 -0.9997
vn -0.0223 0.0151 -0.9996
vn -0.0704 0.0578 -0.9958
vn -0.1230 0.1009 -0.9873
vn -0.1859 0.1525 -0.9707
vn -0.2664 0.2186 -0.9388
vn -0.3798 0.3116 -0.8710
vn -0.3798 0.3117 -0.8710
vn -0.2120 0.1133 -0.9707
vn -0.3040 0.1623 -0.9387
vn -0.4332 0.2316 -0.8710
vn -0.6216 0.3323 -0.7093
vn -0.7846 0.4194 -0.4566
vn -0.0249 0.0103 -0.9996
vn -0.0799 0.0427 -0.9959
vn -0.1403 0.0750 -0.9873
vn -0.8514 0.2583 -0.4566
vn -0.0284 0.0086 -0.9996
vn -0.0871 0.0264 -0.9958
vn -0.1522 0.0462 -0.9873
vn -0.2296 0.0696 -0.9708
vn -0.3297 0.1002 -0.9388
vn -0.4701 0.1425 -0.8710
vn -0.6743 0.2047 -0.7096
vn -0.3429 0.0338 -0.9388
vn -0.4887 0.0480 -0.8711
vn -0.7012 0.0691 -0.7096
vn -0.8854 0.0872 -0.4566
vn -0.0295 0.0029 -0.9996
vn -0.0248 -0.0022 -0.9997
vn -0.0270 0.0000 -0.9996
vn -0.0902 0.0091 -0.9959
vn -0.1583 0.0156 -0.9873
vn -0.2392 0.0235 -0.9707
vn -0.0266 -0.0047 -0.9996
vn -0.0902 -0.0091 -0.9959
vn -0.1583 -0.0156 -0.9873
vn -0.2387 -0.0234 -0.9708
vn -0.3429 -0.0338 -0.9387
vn -0.4890 -0.0482 -0.8710
vn -0.7016 -0.0691 -0.7092
vn -0.8854 -0.0872 -0.4566
vn -0.3298 -0.1001 -0.9387
vn -0.4702 -0.1423 -0.8710
vn -0.6746 -0.2046 -0.7093
vn -0.8514 -0.2583 -0.4565
vn -0.0284 -0.0086 -0.9996
vn -0.0871 -0.0264 -0.9958
vn -0.1521 -0.0462 -0.9873
vn -0.2300 -0.0698 -0.9707
vn -0.0802 -0.0429 -0.9959
vn -0.1403 -0.0750 -0.9873
vn -0.2120 -0.1133 -0.9707
vn -0.3041 -0.1625 -0.9387
vn -0.4333 -0.2316 -0.8710
vn -0.6216 -0.3323 -0.7093
vn -0.7846 -0.4194 -0.4566
vn -0.0265 -0.0141 -0.9995
vn -0.0195 -0.0154 -0.9997
vn -0.0223 -0.0151 -0.9996
vn -0.3798 -0.3116 -0.8710
vn -0.3798 -0.3117 -0.8710
vn -0.5449 -0.4472 -0.7093
vn -0.6877 -0.5644 -0.4566
vn -0.0194 -0.0187 -0.9996
vn -0.0705 -0.0579 -0.9958
vn -0.1230 -0.1009 -0.9873
vn -0.1859 -0.1525 -0.9707
vn -0.2660 -0.2184 -0.9389
vn -0.0578 -0.0704 -0.9958
vn -0.1009 -0.1230 -0.9873
vn -0.1526 -0.1859 -0.9706
vn -0.2184 -0.2663 -0.9388
vn -0.3118 -0.3801 -0.8708
vn -0.4473 -0.5448 -0.7093
vn -0.5644 -0.6877 -0.4567
vn -0.0188 -0.0230 -0.9996
vn -0.2318 -0.4332 -0.8710
vn -0.3323 -0.6217 -0.7092
vn -0.4194 -0.7846 -0.4566
vn -0.0139 -0.0261 -0.9996
vn -0.0063 -0.0242 -0.9997
vn -0.0096 -0.0253 -0.9996
vn -0.0429 -0.0802 -0.9959
vn -0.0750 -0.1403 -0.9873
vn -0.1132 -0.2119 -0.9707
vn -0.1625 -0.3040 -0.9387
vn -0.0462 -0.1522 -0.9873
vn -0.0697 -0.2298 -0.9707
vn -0.1001 -0.3300 -0.9387
vn -0.1426 -0.4702 -0.8710
vn -0.2046 -0.6745 -0.7093
vn -0.2583 -0.8513 -0.4566
vn -0.0051 -0.0265 -0.9996
vn -0.0264 -0.0867 -0.9959
vn -0.0692 -0.7012 -0.7096
vn -0.0872 -0.8854 -0.4566
vn -0.0029 -0.0295 -0.9996
vn -0.0087 -0.0902 -0.9959
vn -0.0156 -0.1584 -0.9873
vn -0.0235 -0.2390 -0.9707
vn -0.0338 -0.3429 -0.9387
vn -0.0481 -0.4889 -0.8710
vn 0.0235 -0.2390 -0.9707
vn 0.0338 -0.3430 -0.9387
vn 0.0481 -0.4889 -0.8710
vn 0.0691 -0.7016 -0.7092
vn 0.0872 -0.8854 -0.4566
vn 0.0029 -0.0295 -0.9996
vn 0.0066 -0.0241 -0.9997
vn 0.0052 -0.0264 -0.9996
vn 0.0087 -0.0902 -0.9959
vn 0.0156 -0.1584 -0.9873
vn 0.2583 -0.8514 -0.4566
vn 0.0096 -0.0253 -0.9996
vn 0.0264 -0.0867 -0.9959
vn 0.0462 -0.1522 -0.9873
vn 0.0696 -0.2297 -0.9708
vn 0.1001 -0.3299 -0.9387
vn 0.1426 -0.4701 -0.8710
vn 0.2046 -0.6746 -0.7093
vn 0.1134 -0.2121 -0.9706
vn 0.1625 -0.3040 -0.9387
vn 0.2316 -0.4332 -0.8710
vn 0.3323 -0.6218 -0.7092
vn 0.4194 -0.7846 -0.4566
vn 0.0140 -0.0262 -0.9996
vn 0.0428 -0.0798 -0.9959
vn 0.0750 -0.1403 -0.9873
vn 0.5644 -0.6877 -0.4567
vn 0.0187 -0.0228 -0.9996
vn 0.0195 -0.0154 -0.9997
vn 0.0194 -0.0187 -0.9996
vn 0.0578 -0.0704 -0.9958
vn 0.1009 -0.1230 -0.9873
vn 0.1525 -0.1859 -0.9707
vn 0.2184 -0.2663 -0.9388
vn 0.3118 -0.3797 -0.8710
vn 0.4473 -0.5448 -0.7093
vn 0.2662 -0.2185 -0.9388
vn 0.3797 -0.3116 -0.8710
vn 0.5449 -0.4473 -0.7092
vn 0.6877 -0.5644 -0.4567
vn 0.0223 -0.0152 -0.9996
vn 0.0704 -0.0578 -0.9958
vn 0.1230 -0.1009 -0.9873
vn 0.1855 -0.1524 -0.9708
vn 0.0265 -0.0141 -0.9996
vn 0.0800 -0.0426 -0.9959
vn 0.1403 -0.0750 -0.9873
vn 0.2121 -0.1136 -0.9706
vn 0.3041 -0.1625 -0.9387
vn 0.3040 -0.1625 -0.9387
vn 0.4332 -0.2316 -0.8710
vn 0.6216 -0.3323 -0.7093
vn 0.7846 -0.4194 -0.4566
vn 0.3298 -0.1001 -0.9387
vn 0.4701 -0.1427 -0.8710
vn 0.6745 -0.2046 -0.7094
vn 0.8514 -0.2583 -0.4565
vn 0.0287 -0.0087 -0.9996
vn 0.0248 -0.0022 -0.9997
vn 0.0264 -0.0054 -0.9996
vn 0.0870 -0.0264 -0.9959
vn 0.1522 -0.0462 -0.9873
vn 0.2296 -0.0696 -0.9708
vn 0.0906 -0.0089 -0.9958
vn 0.1583 -0.0156 -0.9873
vn 0.2392 -0.0235 -0.9707
vn 0.3429 -0.0338 -0.9387
vn 0.4890 -0.0482 -0.8710
vn 0.7016 -0.0690 -0.7092
vn 0.8854 -0.0872 -0.4566
vn 0.0269 -0.0000 -0.9996
vn 0.4887 0.0480 -0.8711
vn 0.7015 0.0691 -0.7094
vn 0.8854 0.0872 -0.4566
vn 0.0295 0.0029 -0.9996
vn 0.0901 0.0089 -0.9959
vn 0.1583 0.0156 -0.9873
vn 0.2389 0.0235 -0.9708
vn 0.3429 0.0338 -0.9388
vn 0.1522 0.0462 -0.9873
vn 0.2300 0.0698 -0.9707
vn 0.3297 0.1002 -0.9388
vn 0.4702 0.1429 -0.8709
vn 0.6745 0.2046 -0.7094
vn 0.8514 0.2583 -0.4566
vn 0.0284 0.0086 -0.9996
vn 0.0219 0.0118 -0.9997
vn 0.0248 0.0103 -0.9996
vn 0.0867 0.0264 -0.9959
vn 0.6215 0.3323 -0.7095
vn 0.7846 0.4194 -0.4566
vn 0.0222 0.0152 -0.9996
vn 0.0800 0.0426 -0.9959
vn 0.1403 0.0750 -0.9873
vn 0.2121 0.1136 -0.9706
vn 0.3040 0.1625 -0.9387
vn 0.4332 0.2316 -0.8710
vn 0.1230 0.1009 -0.9873
vn 0.1856 0.1524 -0.9707
vn 0.2663 0.2185 -0.9388
vn 0.3798 0.3117 -0.8710
vn 0.5449 0.4472 -0.7093
vn 0.6877 0.5644 -0.4566
vn 0.0228 0.0187 -0.9996
vn 0.0701 0.0575 -0.9959
vn 0.4473 0.5448 -0.7093
vn 0.5644 0.6877 -0.4566
vn 0.0187 0.0228 -0.9996
vn 0.0117 0.0219 -0.9997
vn 0.0151 0.0222 -0.9996
vn 0.0577 0.0703 -0.9959
vn 0.1009 0.1230 -0.9873
vn 0.1525 0.1859 -0.9707
vn 0.2187 0.2665 -0.9387
vn 0.3118 0.3797 -0.8710
vn 0.1134 0.2121 -0.9706
vn 0.1625 0.3042 -0.9386
vn 0.2315 0.4331 -0.8711
vn 0.3323 0.6217 -0.7093
vn 0.4194 0.7846 -0.4566
vn 0.0101 0.0249 -0.9996
vn 0.0427 0.0800 -0.9959
vn 0.0750 0.1403 -0.9873
vn 0.2583 0.8513 -0.4566
vn 0.2583 0.8514 -0.4566
vn 0.0087 0.0287 -0.9996
vn 0.0264 0.0870 -0.9959
vn 0.0462 0.1522 -0.9873
vn 0.0697 0.2298 -0.9707
vn 0.1001 0.3299 -0.9387
vn 0.1426 0.4701 -0.8710
vn 0.2046 0.6746 -0.7093
vn 0.0235 0.2390 -0.9707
vn 0.0338 0.3431 -0.9387
vn 0.0482 0.4890 -0.8710
vn 0.0691 0.7015 -0.7093
vn 0.0872 0.8854 -0.4566
vn 0.0029 0.0295 -0.9996
vn 0.0088 0.0905 -0.9959
vn 0.0156 0.1584 -0.9873
usemtl None
s 1
f 1//1 2//1 3//1 4//1
f 5//2 1//2 4//2 6//2
f 7//3 5//3 6//3 8//3
f 9//4 7//4 8//4 10//4
f 11//5 9//5 10//5 12//5
f 13//6 14//7 15//8
f 16//9 13//9 15//9 17//9
f 2//10 16//10 17//10 3//10
f 3//11 17//11 18//11 19//11
f 4//12 3//12 19//12 20//12
f 6//13 4//13 20//13 21//13
f 8//14 6//14 21//14 22//14
f 10//15 8//15 22//15 23//15
f 12//16 10//16 23//16 24//16
f 15//8 14//7 25//17
f 17//18 15//18 25//18 18//18
f 23//19 22//19 26//19 27//19
f 24//20 23//20 27//20 28//20
f 25//17 14//7 29//21
f 18//22 25//22 29//22 30//22
f 19//23 18//23 30//23 31//23
f 20//24 19//24 31//24 32//24
f 21//25 20//25 32//25 33//25
f 22//26 21//26 33//26 26//26
f 31//27 30//27 34//27 35//27
f 32//28 31//28 35//28 36//28
f 33//29 32//29 36//29 37//29
f 26//30 33//30 37//30 38//30
f 27//31 26//31 38//31 39//31
f 28//32 27//32 39//32 40//32
f 29//21 14//7 41//33
f 30//34 29//34 41//34 34//34
f 39//35 38//35 42//35 43//35
f 40//36 39//36 43//36 44//36
f 41//37 14//38 45//39
f 34//40 41//40 45//40 46//40
f 35//41 34//41 46//41 47//41
f 36//42 35//42 47//42 48//42
f 37//43 36//43 48//43 49//43
f 38//44 37//45 49//44 42//45
f 48//46 47//46 50//46 51//46
f 49//47 48//47 51//47 52//47
f 42//48 49//48 52//48 53//48
f 43//49 42//49 53//49 54//49
f 44//50 43//50 54//50 55//50
f 45//39 14//38 56//51
f 46//52 45//52 56//52 57//52
f 47//53 46//53 57//53 50//53
f 55//54 54//54 58//54 59//54
f 56//51 14//38 60//55
f 57//56 56//56 60//56 61//56
f 50//57 57//57 61//57 62//57
f 51//58 50//58 62//58 63//58
f 52//59 51//59 63//59 64//59
f 53//60 52//60 64//60 65//60
f 54//61 53//61 65//61 58//61
f 64//62 63//62 66//62 67//62
f 65//63 64//63 67//63 68//63
f 58//64 65//64 68//64 69//64
f 59//65 58//65 69//65 70//65
f 60//66 14//67 71//68
f 61//69 60//69 71//69 72//69
f 62//70 61//70 72//70 73//70
f 63//71 62//71 73//71 66//71
f 71//68 14//67 74//72
f 72//73 71//73 74//73 75//73
f 73//74 72//74 75//74 76//74
f 66//75 73//75 76//75 77//75
f 67//76 66//76 77//76 78//76
f 68//77 67//77 78//77 79//77
f 69//78 68//78 79//78 80//78
f 70//79 69//79 80//79 81//79
f 78//80 77//80 82//80 83//80
f 79//81 78//81 83//81 84//81
f 80//82 79//82 84//82 85//82
f 81//83 80//83 85//83 86//83
f 74//72 14//67 87//84
f 75//85 74//85 87//85 88//85
f 76//86 75//86 88//86 89//86
f 77//87 76//87 89//87 82//87
f 88//88 87//88 90//88 91//88
f 89//89 88//89 91//89 92//89
f 82//90 89//90 92//90 93//90
f 83//91 82//91 93//91 94//91
f 84//92 83//92 94//92 95//92
f 85//93 84//93 95//93 96//93
f 86//94 85//94 96//94 97//94
f 87//95 14//96 90//97
f 95//98 94//99 98//99 99//99
f 96//100 95//100 99//100 100//100
f 97//101 96//101 100//101 101//101
f 90//97 14//96 102//102
f 91//103 90//103 102//103 103//103
f 92//104 91//104 103//104 104//104
f 93//105 92//105 104//105 105//105
f 94//106 93//106 105//106 98//106
f 103//107 102//107 106//107 107//107
f 104//108 103//108 107//108 108//108
f 105//109 104//109 108//109 109//109
f 98//110 105//110 109//110 110//110
f 99//111 98//111 110//111 111//111
f 100//112 99//112 111//112 112//112
f 101//113 100//113 112//113 113//113
f 102//102 14//96 106//114
f 111//115 110//115 114//115 115//115
f 112//116 111//116 115//116 116//116
f 113//117 112//117 116//117 117//117
f 106//118 14//119 118//120
f 107//121 106//121 118//121 119//121
f 108//122 107//122 119//122 120//122
f 109//123 108//123 120//123 121//123
f 110//124 109//124 121//124 114//124
f 120//125 119//125 122//125 123//125
f 121//126 120//126 123//126 124//126
f 114//127 121//127 124//127 125//127
f 115//128 114//128 125//128 126//128
f 116//129 115//129 126//129 127//129
f 117//130 116//130 127//130 128//130
f 118//120 14//119 129//131
f 119//132 118//132 129//132 122//132
f 127//133 126//133 130//133 131//133
f 128//134 127//134 131//134 132//134
f 129//131 14//119 133//135
f 122//136 129//136 133//136 134//136
f 123//137 122//137 134//137 135//137
f 124//138 123//138 135//138 136//138
f 125//139 124//139 136//139 137//139
f 126//140 125//140 137//140 130//140
f 136//141 135//141 138//141 139//141
f 137//142 136//142 139//142 140//142
f 130//143 137//143 140//143 141//143
f 131//144 130//144 141//144 142//144
f 132//145 131//145 142//145 143//145
f 133//146 14//147 144//148
f 134//149 133//149 144//149 145//149
f 135//150 134//150 145//150 138//150
f 143//151 142//151 146//151 147//151
f 144//148 14//147 148//152
f 145//153 144//153 148//153 149//153
f 138//154 145//154 149//154 150//154
f 139//155 138//155 150//155 151//155
f 140//156 139//156 151//156 152//156
f 141//157 140//157 152//157 153//157
f 142//158 141//158 153//158 146//158
f 151//159 150//159 154//159 155//159
f 152//160 151//160 155//160 156//160
f 153//161 152//161 156//161 157//161
f 146//162 153//162 157//162 158//162
f 147//163 146//163 158//163 159//163
f 148//152 14//147 160//164
f 149//165 148//165 160//165 161//165
f 150//166 149//166 161//166 154//166
f 159//167 158//167 162//167 163//167
f 160//168 14//169 164//170
f 161//171 160//171 164//171 165//171
f 154//172 161//172 165//172 166//172
f 155//173 154//173 166//173 167//173
f 156//174 155//174 167//174 168//174
f 157//175 156//175 168//175 169//175
f 158//176 157//176 169//176 162//176
f 168//177 167//177 170//177 171//177
f 169//178 168//178 171//178 172//178
f 162//179 169//179 172//179 173//179
f 163//180 162//180 173//180 174//180
f 164//170 14//169 175//181
f 165//182 164//182 175//182 176//182
f 166//183 165//183 176//183 177//183
f 167//184 166//184 177//184 170//184
f 175//181 14//169 178//185
f 176//186 175//186 178//186 179//186
f 177//187 176//187 179//187 180//187
f 170//188 177//188 180//188 181//188
f 171//189 170//190 181//189 182//190
f 172//191 171//191 182//191 183//191
f 173//192 172//192 183//192 184//192
f 174//193 173//193 184//193 185//193
f 182//194 181//194 186//194 187//194
f 183//195 182//195 187//195 188//195
f 184//196 183//196 188//196 189//196
f 185//197 184//197 189//197 190//197
f 178//198 14//199 191//200
f 179//201 178//201 191//201 192//201
f 180//202 179//202 192//202 193//202
f 181//203 180//203 193//203 186//203
f 192//204 191//204 194//204 195//204
f 193//205 192//205 195//205 196//205
f 186//206 193//206 196//206 197//206
f 187//207 186//207 197//207 198//207
f 188//208 187//208 198//208 199//208
f 189//209 188//209 199//209 200//209
f 190//210 189//210 200//210 201//210
f 191//200 14//199 194//211
f 199//212 198//212 202//212 203//212
f 200//213 199//213 203//213 204//213
f 201//214 200//214 204//214 205//214
f 194//211 14//199 206//215
f 195//216 194//216 206//216 207//216
f 196//217 195//217 207//217 208//217
f 197//218 196//218 208//218 209//218
f 198//219 197//219 209//219 202//219
f 208//220 207//220 210//220 211//220
f 209//221 208//221 211//221 212//221
f 202//222 209//222 212//222 213//222
f 203//223 202//223 213//223 214//223
f 204//224 203//224 214//224 215//224
f 205//225 204//225 215//225 216//225
f 206//226 14//227 217//228
f 207//229 206//229 217//229 210//229
f 215//230 214//230 218//230 219//230
f 216//231 215//231 219//231 220//231
f 217//228 14//227 221//232
f 210//233 217//233 221//233 222//233
f 211//234 210//234 222//234 223//234
f 212//235 211//235 223//235 224//235
f 213//236 212//236 224//236 225//236
f 214//237 213//237 225//237 218//237
f 223//238 222//238 226//238 227//238
f 224//239 223//239 227//239 228//239
f 225//240 224//240 228//240 229//240
f 218//241 225//241 229//241 230//241
f 219//242 218//242 230//242 231//242
f 220//243 219//243 231//243 232//243
f 221//232 14//227 233//244
f 222//245 221//245 233//245 226//245
f 231//246 230//246 234//246 235//246
f 232//247 231//247 235//247 236//247
f 233//248 14//249 237//250
f 226//251 233//251 237//251 238//251
f 227//252 226//252 238//252 239//252
f 228//253 227//253 239//253 240//253
f 229//254 228//254 240//254 241//254
f 230//255 229//255 241//255 234//255
f 240//256 239//256 242//256 243//256
f 241//257 240//257 243//257 244//257
f 234//258 241//258 244//258 245//258
f 235//259 234//259 245//259 246//259
f 236//260 235//260 246//260 247//260
f 237//250 14//249 248//261
f 238//262 237//262 248//262 249//262
f 239//263 238//263 249//263 242//263
f 247//264 246//265 250//264 251//265
f 248//261 14//249 252//266
f 249//267 248//267 252//267 253//267
f 242//268 249//268 253//268 254//268
f 243//269 242//269 254//269 255//269
f 244//270 243//270 255//270 256//270
f 245//271 244//271 256//271 257//271
f 246//272 245//272 257//272 250//272
f 255//273 254//273 2//273 1//273
f 256//274 255//274 1//274 5//274
f 257//275 256//275 5//275 7//275
f 250//276 257//276 7//276 9//276
f 251//277 250//277 9//277 11//277
f 252//278 14//7 13//6
f 253//279 252//279 13//279 16//279
f 254//280 253//280 16//280 2//280
