{
    "asset" : {
        "generator" : "Khronos glTF Blender I/O v0.9.36",
        "version" : "2.0"
    },
    "scene" : 0,
    "scenes" : [
        {
            "name" : "Scene",
            "nodes" : [
                0
            ]
        }
    ],
    "nodes" : [
        {
            "mesh" : 0,
            "name" : "GLASSES",
            "rotation" : [
                0,
                1,
                0,
                -1.6292068494294654e-07
            ],
            "scale" : [
                0.015084031037986279,
                0.015084031037986279,
                0.015084031037986279
            ],
            "translation" : [
                0,
                0.022050729021430016,
                -0.05427871644496918
            ]
        }
    ],
    "materials" : [
        {
            "doubleSided" : true,
            "name" : "METAL (gold)",
            "pbrMetallicRoughness" : {}
        },
        {
            "doubleSided" : true,
            "name" : "padplastic",
            "pbrMetallicRoughness" : {}
        },
        {
            "doubleSided" : true,
            "name" : "Colored Glass (for 360)",
            "pbrMetallicRoughness" : {}
        },
        {
            "doubleSided" : true,
            "name" : "LENSES",
            "pbrMetallicRoughness" : {}
        },
        {
            "doubleSided" : true,
            "name" : "Logo_Red",
            "pbrMetallicRoughness" : {}
        },
        {
            "doubleSided" : true,
            "name" : "Logo_Black",
            "pbrMetallicRoughness" : {}
        },
        {
            "doubleSided" : true,
            "emissiveFactor" : [
                1,
                1,
                1
            ],
            "name" : "Plastic White.001",
            "pbrMetallicRoughness" : {}
        },
        {
            "doubleSided" : true,
            "name" : "Metal (Hinge&Wire).001",
            "pbrMetallicRoughness" : {}
        }
    ],
    "meshes" : [
        {
            "name" : "Cube.001",
            "primitives" : [
                {
                    "attributes" : {
                        "POSITION" : 0,
                        "NORMAL" : 1,
                        "TEXCOORD_0" : 2,
                        "JOINTS_0" : 3,
                        "WEIGHTS_0" : 4
                    },
                    "indices" : 5,
                    "material" : 0
                },
                {
                    "attributes" : {
                        "POSITION" : 6,
                        "NORMAL" : 7,
                        "TEXCOORD_0" : 8,
                        "JOINTS_0" : 9,
                        "WEIGHTS_0" : 10
                    },
                    "indices" : 11,
                    "material" : 1
                },
                {
                    "attributes" : {
                        "POSITION" : 12,
                        "NORMAL" : 13,
                        "TEXCOORD_0" : 14,
                        "JOINTS_0" : 15,
                        "WEIGHTS_0" : 16
                    },
                    "indices" : 17,
                    "material" : 2
                },
                {
                    "attributes" : {
                        "POSITION" : 18,
                        "NORMAL" : 19,
                        "TEXCOORD_0" : 20,
                        "JOINTS_0" : 21,
                        "WEIGHTS_0" : 22
                    },
                    "indices" : 23,
                    "material" : 3
                },
                {
                    "attributes" : {
                        "POSITION" : 24,
                        "NORMAL" : 25,
                        "TEXCOORD_0" : 26,
                        "JOINTS_0" : 27,
                        "WEIGHTS_0" : 28
                    },
                    "indices" : 29,
                    "material" : 4
                },
                {
                    "attributes" : {
                        "POSITION" : 30,
                        "NORMAL" : 31,
                        "TEXCOORD_0" : 32,
                        "JOINTS_0" : 33,
                        "WEIGHTS_0" : 34
                    },
                    "indices" : 35,
                    "material" : 5
                },
                {
                    "attributes" : {
                        "POSITION" : 36,
                        "NORMAL" : 37,
                        "TEXCOORD_0" : 38,
                        "JOINTS_0" : 39,
                        "WEIGHTS_0" : 40
                    },
                    "indices" : 41,
                    "material" : 6
                },
                {
                    "attributes" : {
                        "POSITION" : 42,
                        "NORMAL" : 43,
                        "TEXCOORD_0" : 44,
                        "JOINTS_0" : 45,
                        "WEIGHTS_0" : 46
                    },
                    "indices" : 47,
                    "material" : 7
                }
            ]
        }
    ],
    "accessors" : [
        {
            "bufferView" : 0,
            "componentType" : 5126,
            "count" : 3512,
            "max" : [
                4.627858638763428,
                1.4666870832443237,
                0.6659950017929077
            ],
            "min" : [
                -4.627858638763428,
                -1.8182199001312256,
                -8.229524612426758
            ],
            "type" : "VEC3"
        },
        {
            "bufferView" : 1,
            "componentType" : 5126,
            "count" : 3512,
            "type" : "VEC3"
        },
        {
            "bufferView" : 2,
            "componentType" : 5126,
            "count" : 3512,
            "type" : "VEC2"
        },
        {
            "bufferView" : 3,
            "componentType" : 5123,
            "count" : 3512,
            "type" : "VEC4"
        },
        {
            "bufferView" : 4,
            "componentType" : 5126,
            "count" : 3512,
            "type" : "VEC4"
        },
        {
            "bufferView" : 5,
            "componentType" : 5123,
            "count" : 11664,
            "type" : "SCALAR"
        },
        {
            "bufferView" : 6,
            "componentType" : 5126,
            "count" : 707,
            "max" : [
                0.9813663363456726,
                0.040026068687438965,
                0.32445210218429565
            ],
            "min" : [
                -0.9813663363456726,
                -0.8553617000579834,
                -0.20333847403526306
            ],
            "type" : "VEC3"
        },
        {
            "bufferView" : 7,
            "componentType" : 5126,
            "count" : 707,
            "type" : "VEC3"
        },
        {
            "bufferView" : 8,
            "componentType" : 5126,
            "count" : 707,
            "type" : "VEC2"
        },
        {
            "bufferView" : 9,
            "componentType" : 5123,
            "count" : 707,
            "type" : "VEC4"
        },
        {
            "bufferView" : 10,
            "componentType" : 5126,
            "count" : 707,
            "type" : "VEC4"
        },
        {
            "bufferView" : 11,
            "componentType" : 5123,
            "count" : 2856,
            "type" : "SCALAR"
        },
        {
            "bufferView" : 12,
            "componentType" : 5126,
            "count" : 270,
            "max" : [
                4.644402503967285,
                0.2898167371749878,
                -5.3977370262146
            ],
            "min" : [
                -4.644402503967285,
                -1.4302486181259155,
                -8.566030502319336
            ],
            "type" : "VEC3"
        },
        {
            "bufferView" : 13,
            "componentType" : 5126,
            "count" : 270,
            "type" : "VEC3"
        },
        {
            "bufferView" : 14,
            "componentType" : 5126,
            "count" : 270,
            "type" : "VEC2"
        },
        {
            "bufferView" : 15,
            "componentType" : 5123,
            "count" : 270,
            "type" : "VEC4"
        },
        {
            "bufferView" : 16,
            "componentType" : 5126,
            "count" : 270,
            "type" : "VEC4"
        },
        {
            "bufferView" : 17,
            "componentType" : 5123,
            "count" : 864,
            "type" : "SCALAR"
        },
        {
            "bufferView" : 18,
            "componentType" : 5126,
            "count" : 332,
            "max" : [
                4.234964847564697,
                1.3410564661026,
                0.6560258865356445
            ],
            "min" : [
                -4.234964847564697,
                -1.7955492734909058,
                -0.05644867196679115
            ],
            "type" : "VEC3"
        },
        {
            "bufferView" : 19,
            "componentType" : 5126,
            "count" : 332,
            "type" : "VEC3"
        },
        {
            "bufferView" : 20,
            "componentType" : 5126,
            "count" : 332,
            "type" : "VEC2"
        },
        {
            "bufferView" : 21,
            "componentType" : 5123,
            "count" : 332,
            "type" : "VEC4"
        },
        {
            "bufferView" : 22,
            "componentType" : 5126,
            "count" : 332,
            "type" : "VEC4"
        },
        {
            "bufferView" : 23,
            "componentType" : 5123,
            "count" : 1296,
            "type" : "SCALAR"
        },
        {
            "bufferView" : 24,
            "componentType" : 5126,
            "count" : 40,
            "max" : [
                4.624320983886719,
                0.35931396484375,
                -0.9355533719062805
            ],
            "min" : [
                -4.624320983886719,
                0.26039600372314453,
                -1.086295485496521
            ],
            "type" : "VEC3"
        },
        {
            "bufferView" : 25,
            "componentType" : 5126,
            "count" : 40,
            "type" : "VEC3"
        },
        {
            "bufferView" : 26,
            "componentType" : 5126,
            "count" : 40,
            "type" : "VEC2"
        },
        {
            "bufferView" : 27,
            "componentType" : 5123,
            "count" : 40,
            "type" : "VEC4"
        },
        {
            "bufferView" : 28,
            "componentType" : 5126,
            "count" : 40,
            "type" : "VEC4"
        },
        {
            "bufferView" : 29,
            "componentType" : 5123,
            "count" : 108,
            "type" : "SCALAR"
        },
        {
            "bufferView" : 30,
            "componentType" : 5126,
            "count" : 78,
            "max" : [
                4.624320983886719,
                0.4159531593322754,
                -0.7838594913482666
            ],
            "min" : [
                -4.624320983886719,
                0.20256471633911133,
                -1.086295485496521
            ],
            "type" : "VEC3"
        },
        {
            "bufferView" : 31,
            "componentType" : 5126,
            "count" : 78,
            "type" : "VEC3"
        },
        {
            "bufferView" : 32,
            "componentType" : 5126,
            "count" : 78,
            "type" : "VEC2"
        },
        {
            "bufferView" : 33,
            "componentType" : 5123,
            "count" : 78,
            "type" : "VEC4"
        },
        {
            "bufferView" : 34,
            "componentType" : 5126,
            "count" : 78,
            "type" : "VEC4"
        },
        {
            "bufferView" : 35,
            "componentType" : 5123,
            "count" : 216,
            "type" : "SCALAR"
        },
        {
            "bufferView" : 36,
            "componentType" : 5126,
            "count" : 48,
            "max" : [
                4.624320983886719,
                0.35931396484375,
                -0.7838302850723267
            ],
            "min" : [
                -4.624320983886719,
                0.26039600372314453,
                -0.9345723390579224
            ],
            "type" : "VEC3"
        },
        {
            "bufferView" : 37,
            "componentType" : 5126,
            "count" : 48,
            "type" : "VEC3"
        },
        {
            "bufferView" : 38,
            "componentType" : 5126,
            "count" : 48,
            "type" : "VEC2"
        },
        {
            "bufferView" : 39,
            "componentType" : 5123,
            "count" : 48,
            "type" : "VEC4"
        },
        {
            "bufferView" : 40,
            "componentType" : 5126,
            "count" : 48,
            "type" : "VEC4"
        },
        {
            "bufferView" : 41,
            "componentType" : 5123,
            "count" : 108,
            "type" : "SCALAR"
        },
        {
            "bufferView" : 42,
            "componentType" : 5126,
            "count" : 48,
            "max" : [
                4.622949600219727,
                0.4266200065612793,
                -0.7726675868034363
            ],
            "min" : [
                -4.622949600219727,
                0.19637393951416016,
                -1.0976513624191284
            ],
            "type" : "VEC3"
        },
        {
            "bufferView" : 43,
            "componentType" : 5126,
            "count" : 48,
            "type" : "VEC3"
        },
        {
            "bufferView" : 44,
            "componentType" : 5126,
            "count" : 48,
            "type" : "VEC2"
        },
        {
            "bufferView" : 45,
            "componentType" : 5123,
            "count" : 48,
            "type" : "VEC4"
        },
        {
            "bufferView" : 46,
            "componentType" : 5126,
            "count" : 48,
            "type" : "VEC4"
        },
        {
            "bufferView" : 47,
            "componentType" : 5123,
            "count" : 72,
            "type" : "SCALAR"
        }
    ],
    "bufferViews" : [
        {
            "buffer" : 0,
            "byteLength" : 42144,
            "byteOffset" : 0
        },
        {
            "buffer" : 0,
            "byteLength" : 42144,
            "byteOffset" : 42144
        },
        {
            "buffer" : 0,
            "byteLength" : 28096,
            "byteOffset" : 84288
        },
        {
            "buffer" : 0,
            "byteLength" : 28096,
            "byteOffset" : 112384
        },
        {
            "buffer" : 0,
            "byteLength" : 56192,
            "byteOffset" : 140480
        },
        {
            "buffer" : 0,
            "byteLength" : 23328,
            "byteOffset" : 196672
        },
        {
            "buffer" : 0,
            "byteLength" : 8484,
            "byteOffset" : 220000
        },
        {
            "buffer" : 0,
            "byteLength" : 8484,
            "byteOffset" : 228484
        },
        {
            "buffer" : 0,
            "byteLength" : 5656,
            "byteOffset" : 236968
        },
        {
            "buffer" : 0,
            "byteLength" : 5656,
            "byteOffset" : 242624
        },
        {
            "buffer" : 0,
            "byteLength" : 11312,
            "byteOffset" : 248280
        },
        {
            "buffer" : 0,
            "byteLength" : 5712,
            "byteOffset" : 259592
        },
        {
            "buffer" : 0,
            "byteLength" : 3240,
            "byteOffset" : 265304
        },
        {
            "buffer" : 0,
            "byteLength" : 3240,
            "byteOffset" : 268544
        },
        {
            "buffer" : 0,
            "byteLength" : 2160,
            "byteOffset" : 271784
        },
        {
            "buffer" : 0,
            "byteLength" : 2160,
            "byteOffset" : 273944
        },
        {
            "buffer" : 0,
            "byteLength" : 4320,
            "byteOffset" : 276104
        },
        {
            "buffer" : 0,
            "byteLength" : 1728,
            "byteOffset" : 280424
        },
        {
            "buffer" : 0,
            "byteLength" : 3984,
            "byteOffset" : 282152
        },
        {
            "buffer" : 0,
            "byteLength" : 3984,
            "byteOffset" : 286136
        },
        {
            "buffer" : 0,
            "byteLength" : 2656,
            "byteOffset" : 290120
        },
        {
            "buffer" : 0,
            "byteLength" : 2656,
            "byteOffset" : 292776
        },
        {
            "buffer" : 0,
            "byteLength" : 5312,
            "byteOffset" : 295432
        },
        {
            "buffer" : 0,
            "byteLength" : 2592,
            "byteOffset" : 300744
        },
        {
            "buffer" : 0,
            "byteLength" : 480,
            "byteOffset" : 303336
        },
        {
            "buffer" : 0,
            "byteLength" : 480,
            "byteOffset" : 303816
        },
        {
            "buffer" : 0,
            "byteLength" : 320,
            "byteOffset" : 304296
        },
        {
            "buffer" : 0,
            "byteLength" : 320,
            "byteOffset" : 304616
        },
        {
            "buffer" : 0,
            "byteLength" : 640,
            "byteOffset" : 304936
        },
        {
            "buffer" : 0,
            "byteLength" : 216,
            "byteOffset" : 305576
        },
        {
            "buffer" : 0,
            "byteLength" : 936,
            "byteOffset" : 305792
        },
        {
            "buffer" : 0,
            "byteLength" : 936,
            "byteOffset" : 306728
        },
        {
            "buffer" : 0,
            "byteLength" : 624,
            "byteOffset" : 307664
        },
        {
            "buffer" : 0,
            "byteLength" : 624,
            "byteOffset" : 308288
        },
        {
            "buffer" : 0,
            "byteLength" : 1248,
            "byteOffset" : 308912
        },
        {
            "buffer" : 0,
            "byteLength" : 432,
            "byteOffset" : 310160
        },
        {
            "buffer" : 0,
            "byteLength" : 576,
            "byteOffset" : 310592
        },
        {
            "buffer" : 0,
            "byteLength" : 576,
            "byteOffset" : 311168
        },
        {
            "buffer" : 0,
            "byteLength" : 384,
            "byteOffset" : 311744
        },
        {
            "buffer" : 0,
            "byteLength" : 384,
            "byteOffset" : 312128
        },
        {
            "buffer" : 0,
            "byteLength" : 768,
            "byteOffset" : 312512
        },
        {
            "buffer" : 0,
            "byteLength" : 216,
            "byteOffset" : 313280
        },
        {
            "buffer" : 0,
            "byteLength" : 576,
            "byteOffset" : 313496
        },
        {
            "buffer" : 0,
            "byteLength" : 576,
            "byteOffset" : 314072
        },
        {
            "buffer" : 0,
            "byteLength" : 384,
            "byteOffset" : 314648
        },
        {
            "buffer" : 0,
            "byteLength" : 384,
            "byteOffset" : 315032
        },
        {
            "buffer" : 0,
            "byteLength" : 768,
            "byteOffset" : 315416
        },
        {
            "buffer" : 0,
            "byteLength" : 144,
            "byteOffset" : 316184
        }
    ],
    "buffers" : [
        {
            "byteLength" : 316328,
            "uri" : "lookrglass111.bin"
        }
    ]
}
